<svg width="120" height="120" viewBox="0 0 120 120" fill="none" xmlns="http://www.w3.org/2000/svg">
<mask id="path-1-inside-1_55870_282" fill="white">
<path d="M115.927 76.1243C110.266 66.6057 102.51 58.672 93.3203 52.9853V50.6321C93.3357 37.2652 89.6751 24.1761 82.7728 12.9579C74.4901 -0.310974 57.5598 -3.99587 44.9652 4.7384C41.8629 6.88725 39.2028 9.68973 37.1631 12.9579C30.2762 24.1842 26.6236 37.2734 26.639 50.6321V53.0098C17.4644 58.6966 9.73221 66.622 4.0785 76.1243C-3.84754 89.6382 0.130981 107.36 12.9585 115.71C17.2084 118.472 22.0944 119.959 27.0811 120H27.43C38.8384 120 50.045 116.879 59.9642 110.955C69.9066 116.895 81.1442 120.016 92.5758 120H92.9479C108.024 119.861 120.138 106.862 119.999 90.9781C119.952 85.7245 118.549 80.5935 115.927 76.1243ZM85.7509 58.7374L85.6036 59.8076V60.4858L85.3786 61.687V62.2589C85.3786 62.8308 85.1538 63.4108 85.0296 63.9829V64.2934C85.0296 64.7671 84.828 65.233 84.704 65.7067L84.5567 66.3358C84.5567 66.7035 84.386 67.0712 84.2851 67.4308C84.1843 67.7903 84.1378 67.9048 84.0835 68.1089L83.7888 69.1303L83.5638 69.833L83.2691 70.7971L83.021 71.5325C82.897 71.8429 82.7962 72.1616 82.6952 72.4475C82.5944 72.7335 82.4935 72.9458 82.4238 73.2072C82.3539 73.4689 82.1989 73.8121 82.0749 74.098L81.7802 74.8334L81.4078 75.7484L81.1131 76.4511L80.6945 77.3416C80.6945 77.5785 80.4926 77.8154 80.3687 78.0444C80.2445 78.2731 80.0971 78.6489 79.9498 78.9594L79.6242 79.613L79.1279 80.5526L78.8021 81.1572L78.1816 82.2848L77.9568 82.6771C77.6853 83.1754 77.3829 83.6739 77.0882 84.164C76.9796 84.303 76.8942 84.4499 76.8166 84.6053L76.1498 85.6266L75.7774 86.1985L75.1803 87.0645C75.1803 87.2771 74.9088 87.4567 74.7614 87.6691L74.1875 88.4781L73.7145 89.0826C73.5129 89.344 73.3422 89.6054 73.1174 89.8671L72.6443 90.4717L72.0471 91.2071C71.8764 91.4194 71.7213 91.6236 71.5508 91.8117L70.9069 92.5468L70.4106 93.1189L69.7438 93.8543L69.2473 94.4017L68.5493 95.1044L68.0299 95.6272L67.2852 96.3626L66.7889 96.8364L65.9436 97.6208L65.4938 98.0131L64.2296 99.1078L62.8647 100.203L62.4458 100.546L61.4997 101.249L60.9568 101.641L60.2589 102.139L59.5919 101.641L59.049 101.249L57.7072 100.546L57.2885 100.235C56.3967 99.5327 55.5047 98.773 54.6362 98.0131L54.2639 97.6454C53.946 97.3921 53.6511 97.1225 53.3721 96.8364L52.8989 96.3953L52.1079 95.6354L51.6347 95.1371L50.9134 94.4017L50.4171 93.8543L49.7192 93.1189L49.246 92.5714C49.0213 92.3099 48.7963 92.0731 48.6024 91.8117L48.106 91.2395L47.4855 90.4553L47.0126 89.8834L46.4153 89.099L45.9655 88.4944L45.3684 87.6609C45.3684 87.4812 45.0971 87.2934 44.9729 87.089C44.8487 86.8848 44.554 86.5171 44.3524 86.1985C44.1508 85.8798 44.1042 85.8308 44.0034 85.6511C43.763 85.3162 43.5382 84.9648 43.3366 84.6053L43.065 84.1885C42.7703 83.6902 42.4679 83.1917 42.1964 82.7016L41.9716 82.3094L41.3277 81.1817L41.033 80.5771L40.5367 79.6376L40.3351 78.9839L39.8853 78.0689C39.8853 77.8563 39.6837 77.5949 39.5595 77.3662L39.164 76.4999L38.8384 75.8218L38.4661 74.9313L38.1714 74.1959L37.8456 73.1993C37.8456 72.9622 37.6751 72.7008 37.5743 72.4639C37.4735 72.2268 37.3493 71.8593 37.2485 71.5488C37.1477 71.2381 37.078 71.0503 37.0003 70.7889L36.7056 69.8739L36.4806 69.1139L36.1859 68.1498C36.1859 67.9129 36.0619 67.6513 35.9843 67.4144C35.9069 67.1775 35.8138 66.7117 35.713 66.3685C35.6664 66.148 35.6122 65.9275 35.5422 65.7149L35.2475 64.3586V63.9911C35.1236 63.419 34.9994 62.8389 34.8986 62.2425V61.6707C34.8986 61.4908 34.7744 60.8862 34.697 60.494C34.6193 60.1017 34.697 60.0202 34.697 59.7913L34.5496 58.7211V57.2585L35.1933 56.9153L35.9146 56.5476L36.8296 56.1311L37.5277 55.8204L38.598 55.3466L39.1409 55.1097L40.754 54.4806L41.3511 54.268L42.4214 53.9003L43.1193 53.6634L44.0888 53.353L44.8332 53.1406L45.8027 52.8547L46.5472 52.6748L47.4935 52.4379L47.7882 52.2826L48.7574 52.0702L49.5253 51.9149L50.4948 51.7598L51.2626 51.6289L52.2318 51.4738H67.7894L68.7821 51.6289L69.5265 51.7598L70.5191 51.9149L71.2639 52.0702L72.2565 52.2826L72.9778 52.4625L73.9704 52.6993L74.6917 52.879L75.7077 53.1652L76.3746 53.3775L77.4448 53.7207L78.0653 53.9003L79.283 54.3416L79.7016 54.497C80.2756 54.6766 80.8184 54.9135 81.3613 55.1261L81.6871 55.2812C82.1292 55.4365 82.5558 55.6244 82.9744 55.8285L83.5484 56.0902L84.5644 56.5639L85.2081 56.8744L85.906 57.2421V57.9775L85.7586 58.7374H85.7509ZM43.1427 16.9043C49.2074 7.09152 61.6781 4.32171 70.9923 10.711C73.3422 12.3206 75.3431 14.4286 76.8709 16.9043C82.7805 26.5456 86.0302 37.7229 86.255 49.1943H86.0068L85.4328 48.9326L84.2386 48.4343L83.6181 48.1729L82.5247 47.601L81.9275 47.3639L80.5626 46.8902L80.0429 46.7348L78.2281 46.1629L77.8095 46.0321L76.4211 45.6401L75.7774 45.4848L74.5598 45.1988L73.8928 45.019L72.652 44.7575L72.0315 44.627L70.4649 44.3653L70.1159 44.4471L68.2546 44.1611H67.7118C67.2697 44.0794 66.82 44.0303 66.3702 44.006H53.5891C53.1393 44.0303 52.6896 44.0875 52.2475 44.1611H51.7047L49.8434 44.4471H49.5487L47.9821 44.733H47.3382L46.1206 45.019L45.4226 45.1743L44.205 45.4602L43.5614 45.6401C43.1039 45.7462 42.6462 45.877 42.1964 46.0321L41.7466 46.1629L39.9319 46.7103L39.513 46.8656L38.148 47.3639L37.5277 47.601L36.3644 48.0421L35.7207 48.3035L34.5573 48.802L33.9602 49.0634H33.7352C33.9834 37.6411 37.2407 26.5129 43.1427 16.9288V16.9043ZM27.43 112.418H27.1045C15.9753 112.344 7.01004 102.785 7.07984 91.0517C7.10311 87.1381 8.15009 83.3143 10.1045 79.9889C14.5561 72.4802 20.4812 66.0662 27.4766 61.1639V61.8994L27.7016 63.2312C27.717 63.4599 27.717 63.6806 27.7016 63.9093C27.7016 64.3016 27.8721 64.7181 27.9497 65.1348L28.0971 65.7885L28.3918 67.1448C28.3918 67.2999 28.3918 67.488 28.5158 67.6431C28.6631 68.2725 28.8105 68.8689 28.9889 69.498V69.7839L29.4387 71.3035C29.4387 71.5161 29.5629 71.6958 29.6094 71.9081C29.656 72.1207 29.8807 72.7171 30.0049 73.1339L30.2297 73.763C30.3539 74.1795 30.5012 74.5963 30.6486 74.9885C30.7959 75.3807 30.7728 75.3807 30.8502 75.5604L31.4707 77.1536V77.3089L32.192 79.033L32.4168 79.5313C32.5875 79.948 32.7891 80.3403 32.9596 80.7568L33.2312 81.3289C33.4328 81.7211 33.6033 82.1131 33.8051 82.4808L34.0765 83.0527L34.7201 84.3112L34.9451 84.7277C35.2398 85.2753 35.5422 85.8226 35.8603 86.3454C35.9069 86.4517 35.9611 86.5498 36.0308 86.6316C36.279 87.0727 36.5271 87.5221 36.7987 87.9632L37.1243 88.4862L37.8224 89.5566L38.1714 90.104L38.8927 91.1498L39.2417 91.6481C39.5672 92.1221 39.8853 92.5877 40.2343 93.0372L41.3743 94.4998C41.4751 94.6549 41.5915 94.7939 41.7235 94.9163L42.5453 95.9622L42.9642 96.4607L43.7864 97.4003L44.205 97.8741C44.4997 98.2418 44.8255 98.5768 45.1513 98.9199L45.446 99.2631L46.7334 100.595L47.0049 100.856L48.0749 101.878L48.5249 102.319L49.471 103.152L49.9442 103.594L50.9368 104.427L51.3866 104.795C51.8597 105.211 52.3329 105.579 52.8292 105.971C44.9263 110.081 36.2481 112.27 27.4378 112.377L27.43 112.418ZM110.467 101.388C107.001 108.194 100.254 112.442 92.9248 112.418H92.5758C83.6338 112.418 74.808 110.285 66.7657 106.167L68.2081 104.991L68.627 104.648L69.6196 103.781L70.1159 103.34L71.0622 102.474L71.4809 102.082L72.5743 101.012L72.8227 100.775L74.1411 99.4185L74.4125 99.1323L75.3819 98.0621L75.7774 97.5881C76.0721 97.2777 76.3514 96.959 76.6227 96.624L77.0182 96.15C77.3129 95.7826 77.6156 95.4476 77.8869 95.0799L78.2127 94.6876L79.3527 93.2007L80.3918 91.7135C80.516 91.5745 80.6245 91.4276 80.7176 91.2723L81.4621 90.1776L81.8111 89.6545C82.0361 89.2868 82.2842 88.9193 82.5092 88.5271L82.8039 88.0531C83.0986 87.5794 83.3777 87.1381 83.6258 86.6641L83.7734 86.4272L84.6884 84.7767L84.89 84.409L85.557 83.1017L85.8286 82.5789L86.4023 81.378L86.6505 80.8304C86.8521 80.4138 87.046 79.9971 87.2244 79.5476C87.3021 79.4089 87.3718 79.2617 87.426 79.1063L88.1705 77.358L88.8144 75.7075C88.8144 75.5277 88.8144 75.3399 88.9849 75.16C89.1556 74.7516 89.303 74.3349 89.4347 73.9017C89.5123 73.7057 89.582 73.5016 89.6363 73.2972L90.0552 72.0389C90.1017 71.8429 90.156 71.6467 90.2257 71.4671L90.6757 69.8984V69.6367C90.823 69.0321 91.0013 68.4112 91.1486 67.7821V67.3081C91.1486 67.153 91.3736 66.3931 91.4744 65.9193C91.4899 65.7067 91.4899 65.5025 91.4744 65.2902C91.4744 64.8734 91.6449 64.4567 91.7226 64.0074C91.738 63.7867 91.738 63.5743 91.7226 63.3538C92.0018 62.9043 92.25 62.4303 92.467 61.9402C92.4827 61.7685 92.4827 61.5889 92.467 61.4172V61.2375C99.4547 66.148 105.38 72.5618 109.839 80.0625C113.771 86.5335 114.019 94.7531 110.483 101.477V101.371L110.467 101.388Z"/>
</mask>
<path d="M115.927 76.1243C110.266 66.6057 102.51 58.672 93.3203 52.9853V50.6321C93.3357 37.2652 89.6751 24.1761 82.7728 12.9579C74.4901 -0.310974 57.5598 -3.99587 44.9652 4.7384C41.8629 6.88725 39.2028 9.68973 37.1631 12.9579C30.2762 24.1842 26.6236 37.2734 26.639 50.6321V53.0098C17.4644 58.6966 9.73221 66.622 4.0785 76.1243C-3.84754 89.6382 0.130981 107.36 12.9585 115.71C17.2084 118.472 22.0944 119.959 27.0811 120H27.43C38.8384 120 50.045 116.879 59.9642 110.955C69.9066 116.895 81.1442 120.016 92.5758 120H92.9479C108.024 119.861 120.138 106.862 119.999 90.9781C119.952 85.7245 118.549 80.5935 115.927 76.1243ZM85.7509 58.7374L85.6036 59.8076V60.4858L85.3786 61.687V62.2589C85.3786 62.8308 85.1538 63.4108 85.0296 63.9829V64.2934C85.0296 64.7671 84.828 65.233 84.704 65.7067L84.5567 66.3358C84.5567 66.7035 84.386 67.0712 84.2851 67.4308C84.1843 67.7903 84.1378 67.9048 84.0835 68.1089L83.7888 69.1303L83.5638 69.833L83.2691 70.7971L83.021 71.5325C82.897 71.8429 82.7962 72.1616 82.6952 72.4475C82.5944 72.7335 82.4935 72.9458 82.4238 73.2072C82.3539 73.4689 82.1989 73.8121 82.0749 74.098L81.7802 74.8334L81.4078 75.7484L81.1131 76.4511L80.6945 77.3416C80.6945 77.5785 80.4926 77.8154 80.3687 78.0444C80.2445 78.2731 80.0971 78.6489 79.9498 78.9594L79.6242 79.613L79.1279 80.5526L78.8021 81.1572L78.1816 82.2848L77.9568 82.6771C77.6853 83.1754 77.3829 83.6739 77.0882 84.164C76.9796 84.303 76.8942 84.4499 76.8166 84.6053L76.1498 85.6266L75.7774 86.1985L75.1803 87.0645C75.1803 87.2771 74.9088 87.4567 74.7614 87.6691L74.1875 88.4781L73.7145 89.0826C73.5129 89.344 73.3422 89.6054 73.1174 89.8671L72.6443 90.4717L72.0471 91.2071C71.8764 91.4194 71.7213 91.6236 71.5508 91.8117L70.9069 92.5468L70.4106 93.1189L69.7438 93.8543L69.2473 94.4017L68.5493 95.1044L68.0299 95.6272L67.2852 96.3626L66.7889 96.8364L65.9436 97.6208L65.4938 98.0131L64.2296 99.1078L62.8647 100.203L62.4458 100.546L61.4997 101.249L60.9568 101.641L60.2589 102.139L59.5919 101.641L59.049 101.249L57.7072 100.546L57.2885 100.235C56.3967 99.5327 55.5047 98.773 54.6362 98.0131L54.2639 97.6454C53.946 97.3921 53.6511 97.1225 53.3721 96.8364L52.8989 96.3953L52.1079 95.6354L51.6347 95.1371L50.9134 94.4017L50.4171 93.8543L49.7192 93.1189L49.246 92.5714C49.0213 92.3099 48.7963 92.0731 48.6024 91.8117L48.106 91.2395L47.4855 90.4553L47.0126 89.8834L46.4153 89.099L45.9655 88.4944L45.3684 87.6609C45.3684 87.4812 45.0971 87.2934 44.9729 87.089C44.8487 86.8848 44.554 86.5171 44.3524 86.1985C44.1508 85.8798 44.1042 85.8308 44.0034 85.6511C43.763 85.3162 43.5382 84.9648 43.3366 84.6053L43.065 84.1885C42.7703 83.6902 42.4679 83.1917 42.1964 82.7016L41.9716 82.3094L41.3277 81.1817L41.033 80.5771L40.5367 79.6376L40.3351 78.9839L39.8853 78.0689C39.8853 77.8563 39.6837 77.5949 39.5595 77.3662L39.164 76.4999L38.8384 75.8218L38.4661 74.9313L38.1714 74.1959L37.8456 73.1993C37.8456 72.9622 37.6751 72.7008 37.5743 72.4639C37.4735 72.2268 37.3493 71.8593 37.2485 71.5488C37.1477 71.2381 37.078 71.0503 37.0003 70.7889L36.7056 69.8739L36.4806 69.1139L36.1859 68.1498C36.1859 67.9129 36.0619 67.6513 35.9843 67.4144C35.9069 67.1775 35.8138 66.7117 35.713 66.3685C35.6664 66.148 35.6122 65.9275 35.5422 65.7149L35.2475 64.3586V63.9911C35.1236 63.419 34.9994 62.8389 34.8986 62.2425V61.6707C34.8986 61.4908 34.7744 60.8862 34.697 60.494C34.6193 60.1017 34.697 60.0202 34.697 59.7913L34.5496 58.7211V57.2585L35.1933 56.9153L35.9146 56.5476L36.8296 56.1311L37.5277 55.8204L38.598 55.3466L39.1409 55.1097L40.754 54.4806L41.3511 54.268L42.4214 53.9003L43.1193 53.6634L44.0888 53.353L44.8332 53.1406L45.8027 52.8547L46.5472 52.6748L47.4935 52.4379L47.7882 52.2826L48.7574 52.0702L49.5253 51.9149L50.4948 51.7598L51.2626 51.6289L52.2318 51.4738H67.7894L68.7821 51.6289L69.5265 51.7598L70.5191 51.9149L71.2639 52.0702L72.2565 52.2826L72.9778 52.4625L73.9704 52.6993L74.6917 52.879L75.7077 53.1652L76.3746 53.3775L77.4448 53.7207L78.0653 53.9003L79.283 54.3416L79.7016 54.497C80.2756 54.6766 80.8184 54.9135 81.3613 55.1261L81.6871 55.2812C82.1292 55.4365 82.5558 55.6244 82.9744 55.8285L83.5484 56.0902L84.5644 56.5639L85.2081 56.8744L85.906 57.2421V57.9775L85.7586 58.7374H85.7509ZM43.1427 16.9043C49.2074 7.09152 61.6781 4.32171 70.9923 10.711C73.3422 12.3206 75.3431 14.4286 76.8709 16.9043C82.7805 26.5456 86.0302 37.7229 86.255 49.1943H86.0068L85.4328 48.9326L84.2386 48.4343L83.6181 48.1729L82.5247 47.601L81.9275 47.3639L80.5626 46.8902L80.0429 46.7348L78.2281 46.1629L77.8095 46.0321L76.4211 45.6401L75.7774 45.4848L74.5598 45.1988L73.8928 45.019L72.652 44.7575L72.0315 44.627L70.4649 44.3653L70.1159 44.4471L68.2546 44.1611H67.7118C67.2697 44.0794 66.82 44.0303 66.3702 44.006H53.5891C53.1393 44.0303 52.6896 44.0875 52.2475 44.1611H51.7047L49.8434 44.4471H49.5487L47.9821 44.733H47.3382L46.1206 45.019L45.4226 45.1743L44.205 45.4602L43.5614 45.6401C43.1039 45.7462 42.6462 45.877 42.1964 46.0321L41.7466 46.1629L39.9319 46.7103L39.513 46.8656L38.148 47.3639L37.5277 47.601L36.3644 48.0421L35.7207 48.3035L34.5573 48.802L33.9602 49.0634H33.7352C33.9834 37.6411 37.2407 26.5129 43.1427 16.9288V16.9043ZM27.43 112.418H27.1045C15.9753 112.344 7.01004 102.785 7.07984 91.0517C7.10311 87.1381 8.15009 83.3143 10.1045 79.9889C14.5561 72.4802 20.4812 66.0662 27.4766 61.1639V61.8994L27.7016 63.2312C27.717 63.4599 27.717 63.6806 27.7016 63.9093C27.7016 64.3016 27.8721 64.7181 27.9497 65.1348L28.0971 65.7885L28.3918 67.1448C28.3918 67.2999 28.3918 67.488 28.5158 67.6431C28.6631 68.2725 28.8105 68.8689 28.9889 69.498V69.7839L29.4387 71.3035C29.4387 71.5161 29.5629 71.6958 29.6094 71.9081C29.656 72.1207 29.8807 72.7171 30.0049 73.1339L30.2297 73.763C30.3539 74.1795 30.5012 74.5963 30.6486 74.9885C30.7959 75.3807 30.7728 75.3807 30.8502 75.5604L31.4707 77.1536V77.3089L32.192 79.033L32.4168 79.5313C32.5875 79.948 32.7891 80.3403 32.9596 80.7568L33.2312 81.3289C33.4328 81.7211 33.6033 82.1131 33.8051 82.4808L34.0765 83.0527L34.7201 84.3112L34.9451 84.7277C35.2398 85.2753 35.5422 85.8226 35.8603 86.3454C35.9069 86.4517 35.9611 86.5498 36.0308 86.6316C36.279 87.0727 36.5271 87.5221 36.7987 87.9632L37.1243 88.4862L37.8224 89.5566L38.1714 90.104L38.8927 91.1498L39.2417 91.6481C39.5672 92.1221 39.8853 92.5877 40.2343 93.0372L41.3743 94.4998C41.4751 94.6549 41.5915 94.7939 41.7235 94.9163L42.5453 95.9622L42.9642 96.4607L43.7864 97.4003L44.205 97.8741C44.4997 98.2418 44.8255 98.5768 45.1513 98.9199L45.446 99.2631L46.7334 100.595L47.0049 100.856L48.0749 101.878L48.5249 102.319L49.471 103.152L49.9442 103.594L50.9368 104.427L51.3866 104.795C51.8597 105.211 52.3329 105.579 52.8292 105.971C44.9263 110.081 36.2481 112.27 27.4378 112.377L27.43 112.418ZM110.467 101.388C107.001 108.194 100.254 112.442 92.9248 112.418H92.5758C83.6338 112.418 74.808 110.285 66.7657 106.167L68.2081 104.991L68.627 104.648L69.6196 103.781L70.1159 103.34L71.0622 102.474L71.4809 102.082L72.5743 101.012L72.8227 100.775L74.1411 99.4185L74.4125 99.1323L75.3819 98.0621L75.7774 97.5881C76.0721 97.2777 76.3514 96.959 76.6227 96.624L77.0182 96.15C77.3129 95.7826 77.6156 95.4476 77.8869 95.0799L78.2127 94.6876L79.3527 93.2007L80.3918 91.7135C80.516 91.5745 80.6245 91.4276 80.7176 91.2723L81.4621 90.1776L81.8111 89.6545C82.0361 89.2868 82.2842 88.9193 82.5092 88.5271L82.8039 88.0531C83.0986 87.5794 83.3777 87.1381 83.6258 86.6641L83.7734 86.4272L84.6884 84.7767L84.89 84.409L85.557 83.1017L85.8286 82.5789L86.4023 81.378L86.6505 80.8304C86.8521 80.4138 87.046 79.9971 87.2244 79.5476C87.3021 79.4089 87.3718 79.2617 87.426 79.1063L88.1705 77.358L88.8144 75.7075C88.8144 75.5277 88.8144 75.3399 88.9849 75.16C89.1556 74.7516 89.303 74.3349 89.4347 73.9017C89.5123 73.7057 89.582 73.5016 89.6363 73.2972L90.0552 72.0389C90.1017 71.8429 90.156 71.6467 90.2257 71.4671L90.6757 69.8984V69.6367C90.823 69.0321 91.0013 68.4112 91.1486 67.7821V67.3081C91.1486 67.153 91.3736 66.3931 91.4744 65.9193C91.4899 65.7067 91.4899 65.5025 91.4744 65.2902C91.4744 64.8734 91.6449 64.4567 91.7226 64.0074C91.738 63.7867 91.738 63.5743 91.7226 63.3538C92.0018 62.9043 92.25 62.4303 92.467 61.9402C92.4827 61.7685 92.4827 61.5889 92.467 61.4172V61.2375C99.4547 66.148 105.38 72.5618 109.839 80.0625C113.771 86.5335 114.019 94.7531 110.483 101.477V101.371L110.467 101.388Z" fill="white" stroke="white" stroke-width="60" mask="url(#path-1-inside-1_55870_282)"/>
</svg>
